<?xml version="1.0"?>
<svg xmlns="http://www.w3.org/2000/svg" id="_x33_0_screw_driver" enable-background="new 0 0 64 64" height="512px" viewBox="0 0 64 64" width="512px"><g><path d="m22 20h2v2h-2z" data-original="#000000" class="active-path" data-old_color="#000000" fill="#04458F"/><path d="m26 24h-2c0 .551-.448 1-1 1s-1-.449-1-1h-2c0 1.654 1.346 3 3 3s3-1.346 3-3z" data-original="#000000" class="active-path" data-old_color="#000000" fill="#04458F"/><path d="m57.477 42 4.341-9.303c.28-.601.236-1.293-.119-1.851-.337-.53-.906-.846-1.521-.846h-5.178v-4h3v-10c0-1.608-1.065-4-4-4s-4 2.392-4 4v10h3v4h-5.178c-.615 0-1.185.316-1.521.847-.355.558-.399 1.25-.119 1.85l4.341 9.303h-7.523v-.138c0-5.438-4.424-9.862-9.861-9.862h-3.359l-.672-2.689c2.057-1.254 3.625-3.12 4.385-5.311h1.007c1.93 0 3.5-1.57 3.5-3.5s-1.57-3.5-3.5-3.5h3.5v-6h-2.059c-.578-4.985-5.416-10-12.941-10s-12.363 5.015-12.941 10h-2.059v6h3.5c-1.93 0-3.5 1.57-3.5 3.5s1.57 3.5 3.5 3.5h1.007c.76 2.191 2.327 4.057 4.385 5.311l-.672 2.689h-2.358c-5.99 0-10.862 4.873-10.862 10.862v6.138h-2v14h62v-21zm-3.477-28c1.826 0 1.992 1.537 2 2h-4c0-.334.097-2 2-2zm-2 4h4v6h-4zm-33 39v4h-10v-4zm6-6v4h-10v-4zm-5.011-13.174c-1.189-.426-1.989-1.561-1.989-2.826v-.137c1.12.571 2.785 1.137 5 1.137s3.88-.566 5-1.137v.137c0 1.265-.8 2.4-1.989 2.826-1.222.437-2.011 1.514-2.011 2.744v8.43h-2v-8.43c0-1.23-.789-2.307-2.011-2.744zm23.011 6.174v5h-10v-5zm-4 11v-4h10v4zm-2-4v4h-10v-4zm-16 6h10v4h-10zm12 0h10v4h-10zm12 0h10v4h-10zm6-2v-4h10v4zm10-6h-4v-5h4zm-8-17v4h2v-4h4.937l-5.938 12.724-5.974-12.724zm-.641 13.937c.307.656.935 1.063 1.641 1.063.367 0 .709-.114 1-.312v2.312h-10v-5h6.456zm-11.359-4.075v.138h-4v-6.978c2.385 1.351 4 3.908 4 6.84zm-11-7.862h3.139c.642 0 1.263.086 1.861.232v7.768h-4v7h-5v-8.43c0-.375.269-.712.685-.861 1.983-.709 3.315-2.602 3.315-4.709zm6-13.5c0 .827-.673 1.5-1.5 1.5h-.556c.036-.329.056-.662.056-1v-2h.5c.827 0 1.5.673 1.5 1.5zm-2.082-9.5h-2.918v-1c0-.551.448-1 1-1h1.333c.289.654.487 1.326.585 2zm-1.816-4h-.102c-1.654 0-3 1.346-3 3v1h-3v-7.661c2.647.599 4.728 1.963 6.102 3.661zm-8.102-3.957v7.957h-2v-7.957c.328-.023.658-.043 1-.043s.672.02 1 .043zm-4 .296v7.661h-3v-1c0-1.654-1.346-3-3-3h-.102c1.374-1.698 3.455-3.062 6.102-3.661zm-7.333 5.661h1.333c.552 0 1 .449 1 1v1h-2.918c.098-.674.296-1.346.585-2zm-2.667 6v-2h26v2zm1.5 7c-.827 0-1.5-.673-1.5-1.5s.673-1.5 1.5-1.5h.5v2c0 .338.02.671.056 1zm2.5-1v-4h18v4c0 4.411-4.037 8-9 8s-9-3.589-9-8zm9 10c1.515 0 2.959-.28 4.273-.786l.602 2.407c-.708.499-2.315 1.379-4.875 1.379s-4.167-.88-4.875-1.378l.602-2.407c1.314.505 2.758.785 4.273.785zm-7 3v1c0 2.107 1.332 4 3.315 4.709.416.149.685.487.685.861v8.43h-9v-14.517c.899-.308 1.859-.483 2.861-.483zm-11 8.862c0-3.091 1.594-5.814 4-7.401v13.539h-4zm8 8.138v4h-10v-4zm-10 6h4v4h-4zm54 4v-4h4v4z" data-original="#000000" class="active-path" data-old_color="#000000" fill="#04458F"/><circle cx="29" cy="20" r="1" data-original="#000000" class="active-path" data-old_color="#000000" fill="#04458F"/><circle cx="17" cy="20" r="1" data-original="#000000" class="active-path" data-old_color="#000000" fill="#04458F"/><path d="m13 41h5v2h-5z" data-original="#000000" class="active-path" data-old_color="#000000" fill="#04458F"/><path d="m13 45h5v2h-5z" data-original="#000000" class="active-path" data-old_color="#000000" fill="#04458F"/></g> </svg>
